semi.ufo
<glyph name="quotedbl.deva" format="1">
  <advance width="804"/>
  <unicode hex="0022"/>
  <outline>
    <contour>
      <point x="328" y="1316" type="line"/>
      <point x="292" y="841" type="line"/>
      <point x="157" y="841" type="line"/>
      <point x="120" y="1316" type="line"/>
    </contour>
    <contour>
      <point x="684" y="1316" type="line"/>
      <point x="647" y="841" type="line"/>
      <point x="512" y="841" type="line"/>
      <point x="475" y="1316" type="line"/>
    </contour>
  </outline>
</glyph>
<glyph name="percent.deva" format="1">
  <advance width="1588"/>
  <unicode hex="0025"/>
  <outline>
    <contour>
      <point x="251" y="922" type="curve" smooth="yes"/>
      <point x="251" y="742"/>
      <point x="283" y="656"/>
      <point x="363" y="656" type="curve" smooth="yes"/>
      <point x="442" y="656"/>
      <point x="481" y="745"/>
      <point x="481" y="922" type="curve" smooth="yes"/>
      <point x="481" y="1099"/>
      <point x="442" y="1187"/>
      <point x="363" y="1187" type="curve" smooth="yes"/>
      <point x="283" y="1187"/>
      <point x="251" y="1101"/>
    </contour>
    <contour>
      <point x="656" y="923" type="curve" smooth="yes"/>
      <point x="656" y="647"/>
      <point x="556" y="508"/>
      <point x="363" y="508" type="curve" smooth="yes"/>
      <point x="180" y="508"/>
      <point x="76" y="658"/>
      <point x="76" y="923" type="curve" smooth="yes"/>
      <point x="76" y="1198"/>
      <point x="172" y="1335"/>
      <point x="363" y="1335" type="curve" smooth="yes"/>
      <point x="551" y="1335"/>
      <point x="656" y="1187"/>
    </contour>
    <contour>
      <point x="1108" y="396" type="curve" smooth="yes"/>
      <point x="1108" y="217"/>
      <point x="1141" y="129"/>
      <point x="1220" y="129" type="curve" smooth="yes"/>
      <point x="1299" y="129"/>
      <point x="1338" y="218"/>
      <point x="1338" y="396" type="curve" smooth="yes"/>
      <point x="1338" y="572"/>
      <point x="1299" y="660"/>
      <point x="1220" y="660" type="curve" smooth="yes"/>
      <point x="1141" y="660"/>
      <point x="1108" y="575"/>
    </contour>
    <contour>
      <point x="1513" y="396" type="curve" smooth="yes"/>
      <point x="1513" y="120"/>
      <point x="1411" y="-18"/>
      <point x="1220" y="-18" type="curve" smooth="yes"/>
      <point x="1039" y="-18"/>
      <point x="932" y="128"/>
      <point x="932" y="396" type="curve" smooth="yes"/>
      <point x="932" y="670"/>
      <point x="1028" y="807"/>
      <point x="1220" y="807" type="curve" smooth="yes"/>
      <point x="1405" y="807"/>
      <point x="1513" y="661"/>
    </contour>
    <contour>
      <point x="1246" y="1316" type="line"/>
      <point x="516" y="0" type="line"/>
      <point x="341" y="0" type="line"/>
      <point x="1071" y="1316" type="line"/>
    </contour>
  </outline>
</glyph>
<glyph name="comma.deva" format="1">
  <advance width="492"/>
  <unicode hex="002C"/>
  <outline>
    <contour>
      <point x="371" y="193" type="line"/>
      <point x="342" y="82"/>
      <point x="289" y="-62"/>
      <point x="212" y="-238" type="curve"/>
      <point x="57" y="-238" type="line"/>
      <point x="98" y="-76"/>
      <point x="129" y="75"/>
      <point x="149" y="214" type="curve"/>
      <point x="357" y="214" type="line"/>
    </contour>
  </outline>
</glyph>
<glyph name="slash.deva" format="1">
  <advance width="719"/>
  <unicode hex="002F"/>
  <outline>
    <contour>
      <point x="704" y="1316" type="line"/>
      <point x="214" y="0" type="line"/>
      <point x="14" y="0" type="line"/>
      <point x="505" y="1316" type="line"/>
    </contour>
  </outline>
</glyph>
<glyph name="two.deva" format="1">
  <advance width="1052"/>
  <unicode hex="0032"/>
  <outline>
    <contour>
      <point x="973" y="0" type="line"/>
      <point x="81" y="0" type="line"/>
      <point x="81" y="160" type="line"/>
      <point x="420" y="501" type="line"/>
      <point x="521" y="604"/>
      <point x="587" y="676"/>
      <point x="620" y="719" type="curve" smooth="yes"/>
      <point x="685" y="806"/>
      <point x="714" y="875"/>
      <point x="714" y="962" type="curve" smooth="yes"/>
      <point x="714" y="1081"/>
      <point x="639" y="1154"/>
      <point x="512" y="1154" type="curve" smooth="yes"/>
      <point x="461" y="1154"/>
      <point x="412" y="1145"/>
      <point x="365" y="1126" type="curve" smooth="yes"/>
      <point x="318" y="1107"/>
      <point x="264" y="1074"/>
      <point x="202" y="1025" type="curve"/>
      <point x="88" y="1165" type="line"/>
      <point x="235" y="1288"/>
      <point x="366" y="1335"/>
      <point x="522" y="1335" type="curve" smooth="yes"/>
      <point x="645" y="1335"/>
      <point x="743" y="1303"/>
      <point x="816" y="1239" type="curve" smooth="yes"/>
      <point x="890" y="1175"/>
      <point x="927" y="1089"/>
      <point x="927" y="981" type="curve" smooth="yes"/>
      <point x="927" y="922"/>
      <point x="916" y="865"/>
      <point x="895" y="812" type="curve" smooth="yes"/>
      <point x="874" y="759"/>
      <point x="841" y="704"/>
      <point x="797" y="647" type="curve" smooth="yes"/>
      <point x="753" y="590"/>
      <point x="680" y="514"/>
      <point x="577" y="417" type="curve"/>
      <point x="348" y="195" type="line"/>
      <point x="348" y="186" type="line"/>
      <point x="973" y="186" type="line"/>
    </contour>
  </outline>
</glyph>
<glyph name="seven.deva" format="1">
  <advance width="1052"/>
  <unicode hex="0037"/>
  <outline>
    <contour>
      <point x="230" y="0" type="line"/>
      <point x="751" y="1128" type="line"/>
      <point x="67" y="1128" type="line"/>
      <point x="67" y="1314" type="line"/>
      <point x="976" y="1314" type="line"/>
      <point x="976" y="1166" type="line"/>
      <point x="459" y="0" type="line"/>
    </contour>
  </outline>
</glyph>
<glyph name="equal.deva" format="1">
  <advance width="1052"/>
  <unicode hex="003D"/>
  <outline>
    <contour>
      <point x="92" y="748" type="line"/>
      <point x="92" y="909" type="line"/>
      <point x="958" y="909" type="line"/>
      <point x="958" y="748" type="line"/>
    </contour>
    <contour>
      <point x="92" y="389" type="line"/>
      <point x="92" y="549" type="line"/>
      <point x="958" y="549" type="line"/>
      <point x="958" y="389" type="line"/>
    </contour>
  </outline>
</glyph>
<glyph name="H" format="1">
  <advance width="1384"/>
  <unicode hex="0048"/>
  <outline>
    <contour>
      <point x="1211" y="0" type="line"/>
      <point x="995" y="0" type="line"/>
      <point x="995" y="593" type="line"/>
      <point x="389" y="593" type="line"/>
      <point x="389" y="0" type="line"/>
      <point x="174" y="0" type="line"/>
      <point x="174" y="1316" type="line"/>
      <point x="389" y="1316" type="line"/>
      <point x="389" y="778" type="line"/>
      <point x="995" y="778" type="line"/>
      <point x="995" y="1316" type="line"/>
      <point x="1211" y="1316" type="line"/>
    </contour>
  </outline>
</glyph>
<glyph name="I" format="1">
  <advance width="562"/>
  <unicode hex="0049"/>
  <outline>
    <contour>
      <point x="174" y="0" type="line"/>
      <point x="174" y="1316" type="line"/>
      <point x="389" y="1316" type="line"/>
      <point x="389" y="0" type="line"/>
    </contour>
  </outline>
</glyph>
<glyph name="K" format="1">
  <advance width="1178"/>
  <unicode hex="004B"/>
  <outline>
    <contour>
      <point x="1178" y="0" type="line"/>
      <point x="929" y="0" type="line"/>
      <point x="516" y="596" type="line"/>
      <point x="389" y="492" type="line"/>
      <point x="389" y="0" type="line"/>
      <point x="174" y="0" type="line"/>
      <point x="174" y="1316" type="line"/>
      <point x="389" y="1316" type="line"/>
      <point x="389" y="688" type="line"/>
      <point x="448" y="760"/>
      <point x="506" y="829"/>
      <point x="564" y="895" type="curve"/>
      <point x="920" y="1316" type="line"/>
      <point x="1165" y="1316" type="line"/>
      <point x="935" y="1046"/>
      <point x="770" y="854"/>
      <point x="670" y="739" type="curve"/>
    </contour>
  </outline>
</glyph>
<glyph name="M" format="1">
  <advance width="1701"/>
  <unicode hex="004D"/>
  <outline>
    <contour>
      <point x="742" y="0" type="line"/>
      <point x="361" y="1099" type="line"/>
      <point x="354" y="1099" type="line"/>
      <point x="364" y="936"/>
      <point x="369" y="783"/>
      <point x="369" y="640" type="curve" smooth="yes"/>
      <point x="369" y="0" type="line"/>
      <point x="174" y="0" type="line"/>
      <point x="174" y="1316" type="line"/>
      <point x="477" y="1316" type="line"/>
      <point x="842" y="269" type="line"/>
      <point x="848" y="269" type="line"/>
      <point x="1224" y="1316" type="line"/>
      <point x="1528" y="1316" type="line"/>
      <point x="1528" y="0" type="line"/>
      <point x="1321" y="0" type="line"/>
      <point x="1321" y="651" type="line" smooth="yes"/>
      <point x="1321" y="716"/>
      <point x="1323" y="801"/>
      <point x="1326" y="906" type="curve" smooth="yes"/>
      <point x="1329" y="1011"/>
      <point x="1332" y="1075"/>
      <point x="1335" y="1097" type="curve"/>
      <point x="1327" y="1097" type="line"/>
      <point x="932" y="0" type="line"/>
    </contour>
  </outline>
</glyph>
<glyph name="N" format="1">
  <advance width="1444"/>
  <unicode hex="004E"/>
  <outline>
    <contour>
      <point x="1270" y="0" type="line"/>
      <point x="1006" y="0" type="line"/>
      <point x="359" y="1048" type="line"/>
      <point x="352" y="1048" type="line"/>
      <point x="356" y="990" type="line" smooth="yes"/>
      <point x="365" y="879"/>
      <point x="369" y="777"/>
      <point x="369" y="684" type="curve" smooth="yes"/>
      <point x="369" y="0" type="line"/>
      <point x="174" y="0" type="line"/>
      <point x="174" y="1316" type="line"/>
      <point x="435" y="1316" type="line"/>
      <point x="1080" y="273" type="line"/>
      <point x="1085" y="273" type="line"/>
      <point x="1078" y="423" type="line"/>
      <point x="1075" y="510"/>
      <point x="1073" y="577"/>
      <point x="1073" y="626" type="curve" smooth="yes"/>
      <point x="1073" y="1316" type="line"/>
      <point x="1270" y="1316" type="line"/>
    </contour>
  </outline>
</glyph>
<glyph name="asciicircum.deva" format="1">
  <advance width="990"/>
  <unicode hex="005E"/>
  <outline>
    <contour>
      <point x="26" y="481" type="line"/>
      <point x="418" y="1323" type="line"/>
      <point x="527" y="1323" type="line"/>
      <point x="964" y="481" type="line"/>
      <point x="789" y="481" type="line"/>
      <point x="475" y="1106" type="line"/>
      <point x="199" y="481" type="line"/>
    </contour>
  </outline>
</glyph>
<glyph name="b" format="1">
  <advance width="1148"/>
  <unicode hex="0062"/>
  <outline>
    <contour>
      <point x="660" y="1013" type="curve" smooth="yes"/>
      <point x="784" y="1013"/>
      <point x="881" y="968"/>
      <point x="950" y="878" type="curve" smooth="yes"/>
      <point x="1019" y="788"/>
      <point x="1054" y="662"/>
      <point x="1054" y="499" type="curve" smooth="yes"/>
      <point x="1054" y="336"/>
      <point x="1019" y="209"/>
      <point x="948" y="118" type="curve" smooth="yes"/>
      <point x="878" y="27"/>
      <point x="781" y="-18"/>
      <point x="656" y="-18" type="curve" smooth="yes"/>
      <point x="530" y="-18"/>
      <point x="432" y="27"/>
      <point x="363" y="118" type="curve"/>
      <point x="348" y="118" type="line"/>
      <point x="310" y="0" type="line"/>
      <point x="151" y="0" type="line"/>
      <point x="151" y="1400" type="line"/>
      <point x="363" y="1400" type="line"/>
      <point x="363" y="1067" type="line" smooth="yes"/>
      <point x="363" y="1042"/>
      <point x="362" y="1006"/>
      <point x="359" y="957" type="curve" smooth="yes"/>
      <point x="354" y="865" type="line"/>
      <point x="363" y="865" type="line"/>
      <point x="430" y="964"/>
      <point x="529" y="1013"/>
    </contour>
    <contour>
      <point x="605" y="841" type="curve" smooth="yes"/>
      <point x="520" y="841"/>
      <point x="458" y="816"/>
      <point x="420" y="765" type="curve" smooth="yes"/>
      <point x="383" y="715"/>
      <point x="364" y="631"/>
      <point x="363" y="514" type="curve" smooth="yes"/>
      <point x="363" y="499" type="line" smooth="yes"/>
      <point x="363" y="258"/>
      <point x="435" y="155"/>
      <point x="608" y="155" type="curve" smooth="yes"/>
      <point x="759" y="155"/>
      <point x="837" y="277"/>
      <point x="837" y="501" type="curve" smooth="yes"/>
      <point x="837" y="728"/>
      <point x="760" y="841"/>
    </contour>
  </outline>
</glyph>
<glyph name="g" format="1">
  <advance width="1025"/>
  <unicode hex="0067"/>
  <outline>
    <contour>
      <point x="992" y="995" type="line"/>
      <point x="992" y="879" type="line"/>
      <point x="822" y="848" type="line"/>
      <point x="853" y="805"/>
      <point x="876" y="741"/>
      <point x="876" y="673" type="curve" smooth="yes"/>
      <point x="876" y="570"/>
      <point x="840" y="490"/>
      <point x="769" y="431" type="curve" smooth="yes"/>
      <point x="698" y="372"/>
      <point x="601" y="343"/>
      <point x="477" y="343" type="curve" smooth="yes"/>
      <point x="445" y="343"/>
      <point x="416" y="345"/>
      <point x="391" y="350" type="curve"/>
      <point x="345" y="322"/>
      <point x="322" y="289"/>
      <point x="322" y="251" type="curve" smooth="yes"/>
      <point x="322" y="206"/>
      <point x="357" y="183"/>
      <point x="472" y="183" type="curve" smooth="yes"/>
      <point x="645" y="183" type="line" smooth="yes"/>
      <point x="865" y="183"/>
      <point x="981" y="86"/>
      <point x="981" y="-90" type="curve" smooth="yes"/>
      <point x="981" y="-315"/>
      <point x="790" y="-443"/>
      <point x="438" y="-443" type="curve" smooth="yes"/>
      <point x="167" y="-443"/>
      <point x="21" y="-343"/>
      <point x="21" y="-166" type="curve" smooth="yes"/>
      <point x="21" y="-43"/>
      <point x="102" y="43"/>
      <point x="241" y="76" type="curve"/>
      <point x="185" y="100"/>
      <point x="144" y="159"/>
      <point x="144" y="218" type="curve" smooth="yes"/>
      <point x="144" y="293"/>
      <point x="186" y="338"/>
      <point x="269" y="389" type="curve"/>
      <point x="166" y="433"/>
      <point x="95" y="538"/>
      <point x="95" y="673" type="curve" smooth="yes"/>
      <point x="95" y="889"/>
      <point x="237" y="1013"/>
      <point x="489" y="1013" type="curve" smooth="yes"/>
      <point x="517" y="1013"/>
      <point x="546" y="1011"/>
      <point x="577" y="1007" type="curve" smooth="yes"/>
      <point x="608" y="1004"/>
      <point x="632" y="1000"/>
      <point x="647" y="995" type="curve"/>
    </contour>
    <contour>
      <point x="210" y="-155" type="curve" smooth="yes"/>
      <point x="210" y="-246"/>
      <point x="296" y="-297"/>
      <point x="445" y="-297" type="curve" smooth="yes"/>
      <point x="674" y="-297"/>
      <point x="787" y="-225"/>
      <point x="787" y="-116" type="curve" smooth="yes"/>
      <point x="787" y="-73"/>
      <point x="771" y="-42"/>
      <point x="740" y="-23" type="curve" smooth="yes"/>
      <point x="709" y="-5"/>
      <point x="652" y="4"/>
      <point x="568" y="4" type="curve" smooth="yes"/>
      <point x="408" y="4" type="line" smooth="yes"/>
      <point x="287" y="4"/>
      <point x="210" y="-58"/>
    </contour>
    <contour>
      <point x="301" y="673" type="curve" smooth="yes"/>
      <point x="301" y="549"/>
      <point x="367" y="479"/>
      <point x="487" y="479" type="curve" smooth="yes"/>
      <point x="609" y="479"/>
      <point x="670" y="544"/>
      <point x="670" y="675" type="curve" smooth="yes"/>
      <point x="670" y="804"/>
      <point x="611" y="877"/>
      <point x="487" y="877" type="curve" smooth="yes"/>
      <point x="364" y="877"/>
      <point x="301" y="806"/>
    </contour>
  </outline>
</glyph>
<glyph name="k" format="1">
  <advance width="1054"/>
  <unicode hex="006B"/>
  <outline>
    <contour>
      <point x="355" y="526" type="line"/>
      <point x="475" y="675" type="line"/>
      <point x="776" y="995" type="line"/>
      <point x="1020" y="995" type="line"/>
      <point x="619" y="568" type="line"/>
      <point x="1045" y="0" type="line"/>
      <point x="796" y="0" type="line"/>
      <point x="477" y="436" type="line"/>
      <point x="361" y="341" type="line"/>
      <point x="361" y="0" type="line"/>
      <point x="151" y="0" type="line"/>
      <point x="151" y="1400" type="line"/>
      <point x="361" y="1400" type="line"/>
      <point x="361" y="717" type="line"/>
      <point x="350" y="526" type="line"/>
    </contour>
  </outline>
</glyph>
<glyph name="n" format="1">
  <advance width="1170"/>
  <unicode hex="006E"/>
  <outline>
    <contour>
      <point x="1027" y="0" type="line"/>
      <point x="814" y="0" type="line"/>
      <point x="814" y="612" type="line" smooth="yes"/>
      <point x="814" y="765"/>
      <point x="756" y="841"/>
      <point x="621" y="841" type="curve" smooth="yes"/>
      <point x="532" y="841"/>
      <point x="466" y="814"/>
      <point x="425" y="761" type="curve" smooth="yes"/>
      <point x="384" y="708"/>
      <point x="363" y="620"/>
      <point x="363" y="496" type="curve" smooth="yes"/>
      <point x="363" y="0" type="line"/>
      <point x="151" y="0" type="line"/>
      <point x="151" y="995" type="line"/>
      <point x="317" y="995" type="line"/>
      <point x="346" y="865" type="line"/>
      <point x="357" y="865" type="line"/>
      <point x="417" y="960"/>
      <point x="534" y="1013"/>
      <point x="669" y="1013" type="curve" smooth="yes"/>
      <point x="908" y="1013"/>
      <point x="1027" y="892"/>
      <point x="1027" y="649" type="curve" smooth="yes"/>
    </contour>
  </outline>
</glyph>
<glyph name="o" format="1">
  <advance width="1126"/>
  <unicode hex="006F"/>
  <outline>
    <contour>
      <point x="1034" y="499" type="curve" smooth="yes"/>
      <point x="1034" y="337"/>
      <point x="992" y="210"/>
      <point x="909" y="119" type="curve" smooth="yes"/>
      <point x="826" y="28"/>
      <point x="710" y="-18"/>
      <point x="561" y="-18" type="curve"/>
      <point x="281" y="-23"/>
      <point x="88" y="189"/>
      <point x="92" y="499" type="curve"/>
      <point x="92" y="661"/>
      <point x="133" y="787"/>
      <point x="216" y="877" type="curve" smooth="yes"/>
      <point x="299" y="968"/>
      <point x="415" y="1013"/>
      <point x="566" y="1013" type="curve" smooth="yes"/>
      <point x="710" y="1013"/>
      <point x="824" y="967"/>
      <point x="908" y="874" type="curve" smooth="yes"/>
      <point x="992" y="781"/>
      <point x="1034" y="656"/>
    </contour>
    <contour>
      <point x="310" y="499" type="curve" smooth="yes"/>
      <point x="310" y="270"/>
      <point x="395" y="155"/>
      <point x="564" y="155" type="curve" smooth="yes"/>
      <point x="732" y="155"/>
      <point x="816" y="270"/>
      <point x="816" y="499" type="curve" smooth="yes"/>
      <point x="816" y="727"/>
      <point x="731" y="841"/>
      <point x="562" y="841" type="curve" smooth="yes"/>
      <point x="385" y="841"/>
      <point x="310" y="719"/>
    </contour>
  </outline>
</glyph>
<glyph name="anusvaradeva" format="1">
  <advance width="0"/>
  <unicode hex="0902"/>
  <outline>
    <contour>
      <point x="-342" y="1604" type="curve" smooth="yes"/>
      <point x="-290" y="1637"/>
      <point x="-254" y="1618"/>
      <point x="-227" y="1588" type="curve" smooth="yes"/>
      <point x="-199" y="1558"/>
      <point x="-208" y="1506"/>
      <point x="-260" y="1473" type="curve" smooth="yes"/>
      <point x="-309" y="1441"/>
      <point x="-348" y="1458"/>
      <point x="-376" y="1490" type="curve" smooth="yes"/>
      <point x="-403" y="1520"/>
      <point x="-392" y="1572"/>
    </contour>
    <contour>
      <point x="49" y="8" type="move" name="x12"/>
    </contour>
    <contour>
      <point x="-424" y="1282" type="move" name="_mark0"/>
    </contour>
  </outline>
</glyph>
<glyph name="aadeva" format="1">
  <advance width="2191"/>
  <unicode hex="0906"/>
  <outline>
    <contour>
      <point x="0" y="0" type="line"/>
      <point x="2191" y="0" type="line"/>
      <point x="2191" y="20" type="line"/>
      <point x="0" y="20" type="line"/>
    </contour>
  </outline>
</glyph>
<glyph name="ideva" format="1">
  <advance width="1011"/>
  <unicode hex="0907"/>
  <outline>
    <contour>
      <point x="494" y="146" type="curve" smooth="yes"/>
      <point x="780" y="-161" type="line"/>
      <point x="641" y="-243" type="line"/>
      <point x="317" y="116" type="line"/>
      <point x="448" y="48" type="line"/>
      <point x="204" y="51"/>
      <point x="119" y="138"/>
      <point x="119" y="203" type="curve" smooth="yes"/>
      <point x="119" y="260"/>
      <point x="164" y="311"/>
      <point x="240" y="311" type="curve" smooth="yes"/>
      <point x="315" y="311"/>
      <point x="393" y="255"/>
    </contour>
    <contour>
      <point x="608" y="1167" type="line"/>
      <point x="809" y="1167" type="line"/>
      <point x="809" y="804" type="line"/>
      <point x="439" y="804" type="line"/>
      <point x="309" y="804"/>
      <point x="270" y="756"/>
      <point x="271" y="694" type="curve" smooth="yes"/>
      <point x="272" y="637"/>
      <point x="313" y="596"/>
      <point x="405" y="560" type="curve"/>
      <point x="322" y="568" type="line"/>
      <point x="424" y="610"/>
      <point x="488" y="631"/>
      <point x="610" y="631" type="curve" smooth="yes"/>
      <point x="789" y="631"/>
      <point x="915" y="521"/>
      <point x="915" y="354" type="curve" smooth="yes"/>
      <point x="915" y="190"/>
      <point x="731" y="52"/>
      <point x="457" y="52" type="curve"/>
      <point x="428" y="204" type="line"/>
      <point x="599" y="204"/>
      <point x="717" y="268"/>
      <point x="717" y="359" type="curve" smooth="yes"/>
      <point x="717" y="431"/>
      <point x="663" y="471"/>
      <point x="586" y="471" type="curve" smooth="yes"/>
      <point x="508" y="471"/>
      <point x="444" y="452"/>
      <point x="368" y="418" type="curve"/>
      <point x="354" y="418" type="line"/>
      <point x="153" y="508"/>
      <point x="80" y="611"/>
      <point x="80" y="733" type="curve" smooth="yes"/>
      <point x="80" y="854"/>
      <point x="168" y="949"/>
      <point x="393" y="949" type="curve" smooth="yes"/>
      <point x="660" y="949" type="line"/>
      <point x="608" y="897" type="line"/>
    </contour>
    <contour>
      <point x="1040" y="1136" type="line"/>
      <point x="-20" y="1136" type="line"/>
      <point x="-20" y="1283" type="line"/>
      <point x="1040" y="1283" type="line"/>
    </contour>
    <contour>
      <point x="652" y="1282" type="move" name="mark0"/>
    </contour>
    <contour>
      <point x="7" y="8" type="move" name="x51"/>
    </contour>
  </outline>
</glyph>
<glyph name="udeva" format="1">
  <advance width="1064"/>
  <unicode hex="0909"/>
  <outline>
    <contour>
      <point x="328" y="628" type="line"/>
      <point x="289" y="798" type="line"/>
      <point x="304" y="799" type="line"/>
      <point x="596" y="807"/>
      <point x="670" y="891"/>
      <point x="670" y="1000" type="curve" smooth="yes"/>
      <point x="670" y="1087"/>
      <point x="617" y="1142"/>
      <point x="512" y="1142" type="curve"/>
      <point x="555" y="1266" type="line"/>
      <point x="736" y="1266"/>
      <point x="860" y="1136"/>
      <point x="860" y="966" type="curve" smooth="yes"/>
      <point x="860" y="786"/>
      <point x="713" y="639"/>
      <point x="346" y="629" type="curve"/>
    </contour>
    <contour>
      <point x="645" y="770" type="line"/>
      <point x="827" y="685"/>
      <point x="937" y="559"/>
      <point x="937" y="395" type="curve" smooth="yes"/>
      <point x="937" y="192"/>
      <point x="781" y="65"/>
      <point x="568" y="65" type="curve" smooth="yes"/>
      <point x="400" y="65"/>
      <point x="251" y="112"/>
      <point x="72" y="239" type="curve"/>
      <point x="119" y="399" type="line"/>
      <point x="276" y="281"/>
      <point x="401" y="243"/>
      <point x="504" y="243" type="curve" smooth="yes"/>
      <point x="654" y="243"/>
      <point x="736" y="325"/>
      <point x="736" y="431" type="curve" smooth="yes"/>
      <point x="736" y="518"/>
      <point x="660" y="622"/>
      <point x="517" y="662" type="curve"/>
    </contour>
    <contour>
      <point x="-44" y="1136" type="line"/>
      <point x="-44" y="1283" type="line"/>
      <point x="1089" y="1283" type="line"/>
      <point x="1089" y="1136" type="line"/>
    </contour>
    <contour>
      <point x="723" y="1282" type="move" name="mark0"/>
    </contour>
    <contour>
      <point x="-109" y="8" type="move" name="x36"/>
    </contour>
  </outline>
</glyph>
<glyph name="edeva" format="1">
  <advance width="1172"/>
  <unicode hex="090F"/>
  <outline>
    <contour>
      <point x="977" y="1183" type="line"/>
      <point x="977" y="740" type="line"/>
      <point x="977" y="637"/>
      <point x="944" y="550"/>
      <point x="871" y="457" type="curve"/>
      <point x="700" y="550" type="line"/>
      <point x="746" y="634"/>
      <point x="766" y="694"/>
      <point x="766" y="814" type="curve" smooth="yes"/>
      <point x="766" y="1183" type="line"/>
    </contour>
    <contour>
      <point x="-31" y="1135" type="line"/>
      <point x="-31" y="1283" type="line"/>
      <point x="1203" y="1283" type="line"/>
      <point x="1203" y="1135" type="line"/>
    </contour>
    <contour>
      <point x="139" y="1183" type="line"/>
      <point x="349" y="1183" type="line"/>
      <point x="349" y="704" type="line"/>
      <point x="349" y="593"/>
      <point x="383" y="534"/>
      <point x="466" y="479" type="curve" smooth="yes"/>
      <point x="836" y="234" type="line"/>
      <point x="950" y="158"/>
      <point x="993" y="93"/>
      <point x="993" y="17" type="curve" smooth="yes"/>
      <point x="993" y="-49"/>
      <point x="978" y="-94"/>
      <point x="938" y="-176" type="curve"/>
      <point x="723" y="-123" type="line"/>
      <point x="750" y="-76"/>
      <point x="767" y="-37"/>
      <point x="767" y="0" type="curve" smooth="yes"/>
      <point x="767" y="38"/>
      <point x="743" y="76"/>
      <point x="685" y="115" type="curve" smooth="yes"/>
      <point x="313" y="371" type="line"/>
      <point x="186" y="459"/>
      <point x="139" y="558"/>
      <point x="139" y="714" type="curve" smooth="yes"/>
    </contour>
    <contour>
      <point x="-76" y="8" type="move" name="x44"/>
    </contour>
    <contour>
      <point x="821" y="1282" type="move" name="mark0"/>
    </contour>
  </outline>
</glyph>
<glyph name="kadeva" format="1">
  <advance width="1505"/>
  <unicode hex="0915"/>
  <outline>
    <contour>
      <point x="841" y="520" type="curve"/>
      <point x="829" y="783" type="line"/>
      <point x="893" y="811"/>
      <point x="980" y="840"/>
      <point x="1074" y="840" type="curve" smooth="yes"/>
      <point x="1290" y="840"/>
      <point x="1447" y="701"/>
      <point x="1447" y="511" type="curve" smooth="yes"/>
      <point x="1447" y="381"/>
      <point x="1402" y="271"/>
      <point x="1326" y="161" type="curve"/>
      <point x="1153" y="225" type="line"/>
      <point x="1231" y="340"/>
      <point x="1266" y="431"/>
      <point x="1266" y="530" type="curve" smooth="yes"/>
      <point x="1266" y="616"/>
      <point x="1199" y="668"/>
      <point x="1100" y="668" type="curve" smooth="yes"/>
      <point x="1022" y="668"/>
      <point x="920" y="611"/>
    </contour>
    <contour>
      <point x="-44" y="1136" type="line"/>
      <point x="-44" y="1283" type="line"/>
      <point x="1576" y="1283" type="line"/>
      <point x="1576" y="1136" type="line"/>
    </contour>
    <contour>
      <point x="704" y="598" type="curve"/>
      <point x="704" y="362" type="line"/>
      <point x="626" y="301"/>
      <point x="550" y="259"/>
      <point x="435" y="259" type="curve" smooth="yes"/>
      <point x="216" y="259"/>
      <point x="64" y="427"/>
      <point x="64" y="630" type="curve" smooth="yes"/>
      <point x="64" y="792"/>
      <point x="187" y="913"/>
      <point x="392" y="913" type="curve" smooth="yes"/>
      <point x="530" y="913"/>
      <point x="621" y="881"/>
      <point x="714" y="827" type="curve"/>
      <point x="714" y="674" type="line"/>
      <point x="614" y="735"/>
      <point x="541" y="757"/>
      <point x="445" y="757" type="curve" smooth="yes"/>
      <point x="314" y="757"/>
      <point x="245" y="682"/>
      <point x="245" y="589" type="curve" smooth="yes"/>
      <point x="245" y="500"/>
      <point x="313" y="428"/>
      <point x="416" y="428" type="curve" smooth="yes"/>
      <point x="530" y="429"/>
      <point x="624" y="491"/>
    </contour>
    <contour>
      <point x="681" y="1169" type="line"/>
      <point x="891" y="1169" type="line"/>
      <point x="891" y="0" type="line"/>
      <point x="681" y="0" type="line"/>
    </contour>
    <contour>
      <point x="-117" y="8" type="move" name="x47"/>
    </contour>
    <contour>
      <point x="724" y="8" type="move" name="x46"/>
    </contour>
    <contour>
      <point x="724" y="8" type="move" name="mark0"/>
    </contour>
  </outline>
</glyph>
<glyph name="gadeva" format="1">
  <advance width="1290"/>
  <unicode hex="0917"/>
  <outline>
    <contour>
      <point x="501" y="1171" type="line"/>
      <point x="501" y="429" type="line"/>
      <point x="501" y="366"/>
      <point x="484" y="334"/>
      <point x="426" y="334" type="curve" smooth="yes"/>
      <point x="323" y="334"/>
      <point x="119" y="504"/>
      <point x="117" y="594" type="curve" smooth="yes"/>
      <point x="116" y="640"/>
      <point x="141" y="671"/>
      <point x="206" y="671" type="curve" smooth="yes"/>
      <point x="326" y="671" type="line"/>
      <point x="290" y="636" type="line"/>
      <point x="290" y="1171" type="line"/>
    </contour>
    <contour>
      <point x="871" y="1169" type="line"/>
      <point x="1082" y="1169" type="line"/>
      <point x="1082" y="0" type="line"/>
      <point x="871" y="0" type="line"/>
    </contour>
    <contour>
      <point x="1319" y="1136" type="line"/>
      <point x="-35" y="1136" type="line"/>
      <point x="-35" y="1283" type="line"/>
      <point x="1319" y="1283" type="line"/>
    </contour>
  </outline>
</glyph>
<glyph name="jadeva" format="1">
  <advance width="1493"/>
  <unicode hex="091C"/>
  <outline>
    <contour>
      <point x="-53" y="1136" type="line"/>
      <point x="-53" y="1283" type="line"/>
      <point x="1523" y="1283" type="line"/>
      <point x="1523" y="1136" type="line"/>
    </contour>
    <contour>
      <point x="624" y="712" type="line"/>
      <point x="643" y="761" type="line"/>
      <point x="780" y="687"/>
      <point x="870" y="558"/>
      <point x="870" y="417" type="curve" smooth="yes"/>
      <point x="870" y="244"/>
      <point x="748" y="123"/>
      <point x="561" y="123" type="curve" smooth="yes"/>
      <point x="379" y="123"/>
      <point x="209" y="240"/>
      <point x="18" y="499" type="curve"/>
      <point x="122" y="644" type="line"/>
      <point x="296" y="402"/>
      <point x="417" y="312"/>
      <point x="517" y="312" type="curve" smooth="yes"/>
      <point x="618" y="312"/>
      <point x="676" y="369"/>
      <point x="676" y="462" type="curve" smooth="yes"/>
      <point x="676" y="579"/>
      <point x="576" y="682"/>
      <point x="394" y="732" type="curve"/>
      <point x="394" y="881" type="line"/>
      <point x="1108" y="881" type="line"/>
      <point x="1108" y="712" type="line"/>
    </contour>
    <contour>
      <point x="1075" y="1169" type="line"/>
      <point x="1286" y="1169" type="line"/>
      <point x="1286" y="0" type="line"/>
      <point x="1075" y="0" type="line"/>
    </contour>
  </outline>
</glyph>
<glyph name="jhadeva" format="1">
  <advance width="1563"/>
  <unicode hex="091D"/>
  <outline>
    <contour>
      <point x="1190" y="371" type="line"/>
      <point x="1155" y="354"/>
      <point x="1074" y="339"/>
      <point x="1016" y="340" type="curve" smooth="yes"/>
      <point x="933" y="341"/>
      <point x="845" y="354"/>
      <point x="807" y="362" type="curve"/>
      <point x="807" y="394"/>
      <point x="799" y="465"/>
      <point x="799" y="520" type="curve"/>
      <point x="833" y="506"/>
      <point x="909" y="498"/>
      <point x="954" y="498" type="curve" smooth="yes"/>
      <point x="1027" y="498"/>
      <point x="1114" y="521"/>
      <point x="1190" y="577" type="curve"/>
    </contour>
    <contour>
      <point x="1144" y="1169" type="line"/>
      <point x="1355" y="1169" type="line"/>
      <point x="1355" y="0" type="line"/>
      <point x="1144" y="0" type="line"/>
    </contour>
    <contour>
      <point x="1592" y="1136" type="line"/>
      <point x="939" y="1136" type="line"/>
      <point x="939" y="1283" type="line"/>
      <point x="1592" y="1283" type="line"/>
    </contour>
    <component base="ideva"/>
  </outline>
</glyph>
<glyph name="nyadeva" format="1">
  <advance width="1545"/>
  <unicode hex="091E"/>
  <outline>
    <contour>
      <point x="819" y="504" type="curve"/>
      <point x="819" y="667" type="line"/>
      <point x="853" y="655"/>
      <point x="920" y="649"/>
      <point x="965" y="649" type="curve" smooth="yes"/>
      <point x="1019" y="649"/>
      <point x="1099" y="661"/>
      <point x="1171" y="694" type="curve"/>
      <point x="1171" y="502" type="line"/>
      <point x="1130" y="487"/>
      <point x="1060" y="480"/>
      <point x="1008" y="480" type="curve" smooth="yes"/>
      <point x="945" y="480"/>
      <point x="876" y="491"/>
    </contour>
    <contour>
      <point x="885" y="555" type="curve" smooth="yes"/>
      <point x="885" y="327"/>
      <point x="731" y="197"/>
      <point x="540" y="197" type="curve" smooth="yes"/>
      <point x="344" y="197"/>
      <point x="199" y="276"/>
      <point x="1" y="465" type="curve"/>
      <point x="72" y="615" type="line"/>
      <point x="251" y="441"/>
      <point x="363" y="373"/>
      <point x="487" y="373" type="curve" smooth="yes"/>
      <point x="621" y="373"/>
      <point x="701" y="460"/>
      <point x="701" y="579" type="curve" smooth="yes"/>
      <point x="700" y="672"/>
      <point x="607" y="746"/>
      <point x="494" y="746" type="curve" smooth="yes"/>
      <point x="412" y="746"/>
      <point x="359" y="726"/>
      <point x="296" y="679" type="curve"/>
      <point x="220" y="830" type="line"/>
      <point x="300" y="881"/>
      <point x="377" y="914"/>
      <point x="503" y="914" type="curve" smooth="yes"/>
      <point x="702" y="915"/>
      <point x="885" y="775"/>
    </contour>
    <contour>
      <point x="-41" y="1136" type="line"/>
      <point x="-41" y="1283" type="line"/>
      <point x="1574" y="1283" type="line"/>
      <point x="1574" y="1136" type="line"/>
    </contour>
    <contour>
      <point x="1126" y="1169" type="line"/>
      <point x="1337" y="1169" type="line"/>
      <point x="1337" y="0" type="line"/>
      <point x="1126" y="0" type="line"/>
    </contour>
  </outline>
</glyph>
<glyph name="ttadeva" format="1">
  <advance width="1103"/>
  <unicode hex="091F"/>
  <outline>
    <contour>
      <point x="670" y="1174" type="line"/>
      <point x="872" y="1174" type="line"/>
      <point x="872" y="736" type="line"/>
      <point x="622" y="736" type="line"/>
      <point x="402" y="736"/>
      <point x="307" y="633"/>
      <point x="307" y="495" type="curve" smooth="yes"/>
      <point x="307" y="360"/>
      <point x="437" y="259"/>
      <point x="596" y="259" type="curve" smooth="yes"/>
      <point x="715" y="259"/>
      <point x="797" y="275"/>
      <point x="933" y="327" type="curve"/>
      <point x="979" y="157" type="line"/>
      <point x="833" y="109"/>
      <point x="761" y="96"/>
      <point x="628" y="96" type="curve" smooth="yes"/>
      <point x="309" y="96"/>
      <point x="94" y="292"/>
      <point x="94" y="528" type="curve" smooth="yes"/>
      <point x="94" y="729"/>
      <point x="239" y="887"/>
      <point x="538" y="887" type="curve" smooth="yes"/>
      <point x="709" y="887" type="line"/>
      <point x="670" y="852" type="line"/>
    </contour>
    <contour>
      <point x="1142" y="1136" type="line"/>
      <point x="-44" y="1136" type="line"/>
      <point x="-44" y="1283" type="line"/>
      <point x="1142" y="1283" type="line"/>
    </contour>
    <contour>
      <point x="580" y="8" type="move" name="mark0"/>
    </contour>
    <contour>
      <point x="1155" y="8" type="move" name="x29"/>
    </contour>
    <contour>
      <point x="-37" y="8" type="move" name="x28"/>
    </contour>
  </outline>
</glyph>
<glyph name="ddadeva" format="1">
  <advance width="1146"/>
  <unicode hex="0921"/>
  <outline>
    <contour>
      <point x="720" y="1167" type="line"/>
      <point x="922" y="1167" type="line"/>
      <point x="922" y="804" type="line"/>
      <point x="504" y="804" type="line"/>
      <point x="391" y="804"/>
      <point x="352" y="759"/>
      <point x="352" y="692" type="curve" smooth="yes"/>
      <point x="352" y="635"/>
      <point x="399" y="590"/>
      <point x="485" y="554" type="curve"/>
      <point x="402" y="562" type="line"/>
      <point x="517" y="613"/>
      <point x="585" y="628"/>
      <point x="684" y="628" type="curve" smooth="yes"/>
      <point x="905" y="628"/>
      <point x="1032" y="513"/>
      <point x="1032" y="335" type="curve" smooth="yes"/>
      <point x="1032" y="163"/>
      <point x="884" y="37"/>
      <point x="613" y="37" type="curve" smooth="yes"/>
      <point x="438" y="37"/>
      <point x="300" y="80"/>
      <point x="107" y="185" type="curve"/>
      <point x="143" y="346" type="line"/>
      <point x="328" y="235"/>
      <point x="475" y="188"/>
      <point x="597" y="188" type="curve" smooth="yes"/>
      <point x="746" y="188"/>
      <point x="833" y="257"/>
      <point x="833" y="338" type="curve" smooth="yes"/>
      <point x="833" y="427"/>
      <point x="782" y="468"/>
      <point x="669" y="468" type="curve" smooth="yes"/>
      <point x="584" y="468"/>
      <point x="529" y="451"/>
      <point x="447" y="413" type="curve"/>
      <point x="433" y="412" type="line"/>
      <point x="238" y="502"/>
      <point x="162" y="609"/>
      <point x="162" y="731" type="curve" smooth="yes"/>
      <point x="162" y="851"/>
      <point x="250" y="949"/>
      <point x="458" y="949" type="curve" smooth="yes"/>
      <point x="773" y="949" type="line"/>
      <point x="720" y="897" type="line"/>
    </contour>
    <contour>
      <point x="1155" y="1136" type="line"/>
      <point x="-22" y="1136" type="line"/>
      <point x="-22" y="1283" type="line"/>
      <point x="1155" y="1283" type="line"/>
    </contour>
    <contour>
      <point x="1249" y="8" type="move" name="x45"/>
    </contour>
    <contour>
      <point x="-270" y="8" type="move" name="x44"/>
    </contour>
    <contour>
      <point x="535" y="8" type="move" name="mark0"/>
    </contour>
  </outline>
</glyph>
<glyph name="ddhadeva" format="1">
  <advance width="1121"/>
  <unicode hex="0922"/>
  <outline>
    <contour>
      <point x="1135" y="1136" type="line"/>
      <point x="-71" y="1136" type="line"/>
      <point x="-71" y="1283" type="line"/>
      <point x="1135" y="1283" type="line"/>
    </contour>
    <contour>
      <point x="668" y="1166" type="line"/>
      <point x="870" y="1166" type="line"/>
      <point x="870" y="740" type="line"/>
      <point x="600" y="740" type="line"/>
      <point x="359" y="740"/>
      <point x="260" y="631"/>
      <point x="260" y="471" type="curve" smooth="yes"/>
      <point x="260" y="324"/>
      <point x="408" y="188"/>
      <point x="638" y="188" type="curve" smooth="yes"/>
      <point x="812" y="188"/>
      <point x="888" y="254"/>
      <point x="888" y="330" type="curve" smooth="yes"/>
      <point x="888" y="387"/>
      <point x="842" y="429"/>
      <point x="772" y="429" type="curve" smooth="yes"/>
      <point x="686" y="429"/>
      <point x="627" y="369"/>
      <point x="627" y="284" type="curve" smooth="yes"/>
      <point x="627" y="235"/>
      <point x="638" y="192"/>
      <point x="666" y="144" type="curve"/>
      <point x="508" y="126" type="line"/>
      <point x="467" y="191"/>
      <point x="453" y="242"/>
      <point x="453" y="316" type="curve" smooth="yes"/>
      <point x="453" y="445"/>
      <point x="563" y="563"/>
      <point x="755" y="563" type="curve" smooth="yes"/>
      <point x="945" y="563"/>
      <point x="1058" y="463"/>
      <point x="1058" y="319" type="curve" smooth="yes"/>
      <point x="1058" y="187"/>
      <point x="930" y="61"/>
      <point x="656" y="61" type="curve" smooth="yes"/>
      <point x="274" y="61"/>
      <point x="55" y="287"/>
      <point x="55" y="512" type="curve" smooth="yes"/>
      <point x="55" y="719"/>
      <point x="200" y="887"/>
      <point x="514" y="887" type="curve" smooth="yes"/>
      <point x="709" y="887" type="line"/>
      <point x="668" y="853" type="line"/>
    </contour>
    <contour>
      <point x="527" y="8" type="move" name="mark0"/>
    </contour>
    <contour>
      <point x="1175" y="8" type="move" name="x44"/>
    </contour>
    <contour>
      <point x="-153" y="8" type="move" name="x43"/>
    </contour>
  </outline>
</glyph>
<glyph name="thadeva" format="1">
  <advance width="1309"/>
  <unicode hex="0925"/>
  <outline>
    <contour>
      <point x="653" y="937" type="curve" smooth="yes"/>
      <point x="653" y="755"/>
      <point x="516" y="589"/>
      <point x="293" y="505" type="curve"/>
      <point x="296" y="574" type="line"/>
      <point x="376" y="463"/>
      <point x="480" y="404"/>
      <point x="587" y="404" type="curve" smooth="yes"/>
      <point x="731" y="404"/>
      <point x="856" y="468"/>
      <point x="942" y="619" type="curve"/>
      <point x="943" y="342" type="line"/>
      <point x="871" y="272"/>
      <point x="771" y="233"/>
      <point x="644" y="233" type="curve" smooth="yes"/>
      <point x="429" y="233"/>
      <point x="210" y="358"/>
      <point x="94" y="601" type="curve"/>
      <point x="94" y="605" type="line"/>
      <point x="342" y="692"/>
      <point x="473" y="837"/>
      <point x="473" y="980" type="curve" smooth="yes"/>
      <point x="473" y="1095"/>
      <point x="403" y="1169"/>
      <point x="316" y="1169" type="curve" smooth="yes"/>
      <point x="243" y="1169"/>
      <point x="214" y="1120"/>
      <point x="215" y="1064" type="curve" smooth="yes"/>
      <point x="217" y="969"/>
      <point x="300" y="898"/>
      <point x="473" y="845" type="curve"/>
      <point x="406" y="740" type="line"/>
      <point x="137" y="814"/>
      <point x="24" y="958"/>
      <point x="24" y="1114" type="curve" smooth="yes"/>
      <point x="24" y="1228"/>
      <point x="110" y="1321"/>
      <point x="282" y="1321" type="curve" smooth="yes"/>
      <point x="527" y="1321"/>
      <point x="653" y="1134"/>
    </contour>
    <contour>
      <point x="890" y="1169" type="line"/>
      <point x="1101" y="1169" type="line"/>
      <point x="1101" y="0" type="line"/>
      <point x="890" y="0" type="line"/>
    </contour>
    <contour>
      <point x="1338" y="1136" type="line"/>
      <point x="775" y="1136" type="line"/>
      <point x="775" y="1283" type="line"/>
      <point x="1338" y="1283" type="line"/>
    </contour>
  </outline>
</glyph>
<glyph name="dhadeva" format="1">
  <advance width="1266"/>
  <unicode hex="0927"/>
  <outline>
    <contour>
      <point x="662" y="720" type="line"/>
      <point x="651" y="720" type="line"/>
      <point x="446" y="713"/>
      <point x="379" y="630"/>
      <point x="379" y="535" type="curve" smooth="yes"/>
      <point x="379" y="447"/>
      <point x="459" y="386"/>
      <point x="557" y="387" type="curve" smooth="yes"/>
      <point x="687" y="389"/>
      <point x="810" y="468"/>
      <point x="891" y="588" type="curve"/>
      <point x="892" y="307" type="line"/>
      <point x="804" y="248"/>
      <point x="692" y="216"/>
      <point x="577" y="216" type="curve" smooth="yes"/>
      <point x="347" y="216"/>
      <point x="189" y="373"/>
      <point x="189" y="561" type="curve" smooth="yes"/>
      <point x="189" y="719"/>
      <point x="303" y="886"/>
      <point x="599" y="886" type="curve" smooth="yes"/>
      <point x="609" y="886" type="line"/>
    </contour>
    <contour>
      <point x="332" y="740" type="line"/>
      <point x="130" y="785"/>
      <point x="8" y="900"/>
      <point x="8" y="1080" type="curve" smooth="yes"/>
      <point x="8" y="1224"/>
      <point x="114" y="1329"/>
      <point x="291" y="1329" type="curve" smooth="yes"/>
      <point x="401" y="1329"/>
      <point x="470" y="1310"/>
      <point x="546" y="1278" type="curve"/>
      <point x="521" y="1129" type="line"/>
      <point x="474" y="1149"/>
      <point x="421" y="1163"/>
      <point x="361" y="1163" type="curve" smooth="yes"/>
      <point x="268" y="1163"/>
      <point x="218" y="1104"/>
      <point x="218" y="1038" type="curve" smooth="yes"/>
      <point x="218" y="938"/>
      <point x="294" y="872"/>
      <point x="487" y="857" type="curve"/>
    </contour>
    <contour>
      <point x="848" y="1168" type="line"/>
      <point x="1059" y="1168" type="line"/>
      <point x="1059" y="0" type="line"/>
      <point x="848" y="0" type="line"/>
    </contour>
    <contour>
      <point x="1295" y="1135" type="line"/>
      <point x="747" y="1135" type="line"/>
      <point x="747" y="1282" type="line"/>
      <point x="1295" y="1282" type="line"/>
    </contour>
  </outline>
</glyph>
<glyph name="nadeva" format="1">
  <advance width="1195"/>
  <unicode hex="0928"/>
  <outline>
    <contour>
      <point x="800" y="812" type="line"/>
      <point x="800" y="639" type="line"/>
      <point x="318" y="639" type="line"/>
      <point x="368" y="690" type="line"/>
      <point x="368" y="449" type="line"/>
      <point x="368" y="390"/>
      <point x="341" y="356"/>
      <point x="286" y="356" type="curve" smooth="yes"/>
      <point x="214" y="356"/>
      <point x="99" y="559"/>
      <point x="99" y="704" type="curve" smooth="yes"/>
      <point x="99" y="774"/>
      <point x="131" y="812"/>
      <point x="219" y="812" type="curve" smooth="yes"/>
    </contour>
    <contour>
      <point x="-44" y="1136" type="line"/>
      <point x="-44" y="1283" type="line"/>
      <point x="1223" y="1283" type="line"/>
      <point x="1223" y="1136" type="line"/>
    </contour>
    <contour>
      <point x="776" y="1169" type="line"/>
      <point x="987" y="1169" type="line"/>
      <point x="987" y="0" type="line"/>
      <point x="776" y="0" type="line"/>
    </contour>
  </outline>
</glyph>
<glyph name="padeva" format="1">
  <advance width="1176"/>
  <unicode hex="092A"/>
  <outline>
    <contour>
      <point x="1206" y="1136" type="line"/>
      <point x="-49" y="1136" type="line"/>
      <point x="-49" y="1283" type="line"/>
      <point x="1206" y="1283" type="line"/>
    </contour>
    <contour>
      <point x="345" y="1207" type="line"/>
      <point x="345" y="712" type="line"/>
      <point x="345" y="589"/>
      <point x="409" y="522"/>
      <point x="526" y="522" type="curve" smooth="yes"/>
      <point x="617" y="522"/>
      <point x="697" y="547"/>
      <point x="787" y="617" type="curve"/>
      <point x="787" y="401" type="line"/>
      <point x="722" y="372"/>
      <point x="642" y="356"/>
      <point x="562" y="356" type="curve" smooth="yes"/>
      <point x="305" y="356"/>
      <point x="134" y="513"/>
      <point x="134" y="761" type="curve" smooth="yes"/>
      <point x="134" y="1207" type="line"/>
    </contour>
    <contour>
      <point x="757" y="1169" type="line"/>
      <point x="968" y="1169" type="line"/>
      <point x="968" y="0" type="line"/>
      <point x="757" y="0" type="line"/>
    </contour>
  </outline>
</glyph>
<glyph name="badeva" format="1">
  <advance width="1165"/>
  <unicode hex="092C"/>
  <outline>
    <contour>
      <point x="744" y="427" type="line"/>
      <point x="653" y="359" type="line"/>
      <point x="302" y="762" type="line"/>
      <point x="392" y="830" type="line"/>
    </contour>
    <component base="vadeva"/>
  </outline>
</glyph>
<glyph name="madeva" format="1">
  <advance width="1245"/>
  <unicode hex="092E"/>
  <outline>
    <contour>
      <point x="-39" y="1136" type="line"/>
      <point x="-39" y="1283" type="line"/>
      <point x="1273" y="1283" type="line"/>
      <point x="1273" y="1136" type="line"/>
    </contour>
    <contour>
      <point x="217" y="1175" type="line"/>
      <point x="428" y="1175" type="line"/>
      <point x="428" y="623" type="line"/>
      <point x="396" y="656" type="line"/>
      <point x="880" y="656" type="line"/>
      <point x="880" y="490" type="line"/>
      <point x="388" y="490" type="line"/>
      <point x="428" y="524" type="line"/>
      <point x="428" y="384" type="line"/>
      <point x="428" y="327"/>
      <point x="407" y="296"/>
      <point x="351" y="296" type="curve" smooth="yes"/>
      <point x="246" y="296"/>
      <point x="74" y="485"/>
      <point x="74" y="574" type="curve" smooth="yes"/>
      <point x="74" y="628"/>
      <point x="102" y="655"/>
      <point x="153" y="655" type="curve" smooth="yes"/>
      <point x="249" y="655" type="line"/>
      <point x="217" y="626" type="line"/>
    </contour>
    <contour>
      <point x="827" y="1169" type="line"/>
      <point x="1037" y="1169" type="line"/>
      <point x="1037" y="0" type="line"/>
      <point x="827" y="0" type="line"/>
    </contour>
  </outline>
</glyph>
<glyph name="yadeva" format="1">
  <advance width="1229"/>
  <unicode hex="092F"/>
  <outline>
    <contour>
      <point x="-59" y="1136" type="line"/>
      <point x="-59" y="1283" type="line"/>
      <point x="1258" y="1283" type="line"/>
      <point x="1258" y="1136" type="line"/>
    </contour>
    <contour>
      <point x="300" y="1164" type="line"/>
      <point x="510" y="1164" type="line"/>
      <point x="510" y="950" type="line"/>
      <point x="510" y="759"/>
      <point x="424" y="614"/>
      <point x="205" y="546" type="curve"/>
      <point x="207" y="611" type="line"/>
      <point x="290" y="499"/>
      <point x="388" y="425"/>
      <point x="514" y="425" type="curve" smooth="yes"/>
      <point x="663" y="425"/>
      <point x="785" y="509"/>
      <point x="858" y="645" type="curve"/>
      <point x="858" y="370" type="line"/>
      <point x="789" y="300"/>
      <point x="701" y="254"/>
      <point x="564" y="254" type="curve" smooth="yes"/>
      <point x="335" y="254"/>
      <point x="121" y="402"/>
      <point x="13" y="632" type="curve"/>
      <point x="13" y="637" type="line"/>
      <point x="245" y="723"/>
      <point x="300" y="830"/>
      <point x="300" y="973" type="curve" smooth="yes"/>
    </contour>
    <contour>
      <point x="810" y="1169" type="line"/>
      <point x="1021" y="1169" type="line"/>
      <point x="1021" y="0" type="line"/>
      <point x="810" y="0" type="line"/>
    </contour>
  </outline>
</glyph>
<glyph name="llladeva" format="1">
  <advance width="1603"/>
  <unicode hex="0934"/>
  <outline>
    <component base="lladeva"/>
    <component base="nuktadeva" xOffset="1070" yOffset="97"/>
    <contour>
      <point x="1112" y="0" type="move" name="mark0"/>
    </contour>
  </outline>
</glyph>
<glyph name="ssadeva" format="1">
  <advance width="1182"/>
  <unicode hex="0937"/>
  <outline>
    <contour>
      <point x="830" y="586" type="line"/>
      <point x="737" y="518" type="line"/>
      <point x="241" y="1121" type="line"/>
      <point x="334" y="1189" type="line"/>
    </contour>
    <component base="padeva"/>
  </outline>
</glyph>
<glyph name="hadeva" format="1">
  <advance width="1101"/>
  <unicode hex="0939"/>
  <outline>
    <contour>
      <point x="600" y="610" type="curve" smooth="yes"/>
      <point x="860" y="610"/>
      <point x="992" y="468"/>
      <point x="992" y="309" type="curve" smooth="yes"/>
      <point x="992" y="230"/>
      <point x="969" y="159"/>
      <point x="931" y="94" type="curve"/>
      <point x="761" y="135" type="line"/>
      <point x="789" y="184"/>
      <point x="809" y="239"/>
      <point x="809" y="306" type="curve" smooth="yes"/>
      <point x="809" y="375"/>
      <point x="747" y="450"/>
      <point x="615" y="450" type="curve" smooth="yes"/>
      <point x="464" y="450"/>
      <point x="365" y="351"/>
      <point x="365" y="227" type="curve" smooth="yes"/>
      <point x="365" y="79"/>
      <point x="501" y="-56"/>
      <point x="895" y="-109" type="curve"/>
      <point x="840" y="-251" type="line"/>
      <point x="384" y="-190"/>
      <point x="164" y="1"/>
      <point x="164" y="245" type="curve" smooth="yes"/>
      <point x="164" y="442"/>
      <point x="329" y="610"/>
    </contour>
    <contour>
      <point x="1143" y="1136" type="line"/>
      <point x="-26" y="1136" type="line"/>
      <point x="-26" y="1283" type="line"/>
      <point x="1143" y="1283" type="line"/>
    </contour>
    <contour>
      <point x="712" y="1146" type="line"/>
      <point x="922" y="1146" type="line"/>
      <point x="922" y="804" type="line"/>
      <point x="467" y="804" type="line"/>
      <point x="338" y="804"/>
      <point x="291" y="751"/>
      <point x="291" y="683" type="curve" smooth="yes"/>
      <point x="291" y="619"/>
      <point x="331" y="574"/>
      <point x="444" y="528" type="curve"/>
      <point x="307" y="423" type="line"/>
      <point x="166" y="501"/>
      <point x="89" y="600"/>
      <point x="89" y="727" type="curve" smooth="yes"/>
      <point x="89" y="856"/>
      <point x="188" y="951"/>
      <point x="385" y="951" type="curve" smooth="yes"/>
      <point x="751" y="951" type="line"/>
      <point x="712" y="898" type="line"/>
    </contour>
  </outline>
</glyph>
<glyph name="aavowelsigndeva" format="1">
  <advance width="592"/>
  <unicode hex="093E"/>
  <outline>
    <contour>
      <point x="173" y="1169" type="line"/>
      <point x="384" y="1169" type="line"/>
      <point x="384" y="0" type="line"/>
      <point x="173" y="0" type="line"/>
    </contour>
    <contour>
      <point x="621" y="1136" type="line"/>
      <point x="-32" y="1136" type="line"/>
      <point x="-32" y="1283" type="line"/>
      <point x="621" y="1283" type="line"/>
    </contour>
  </outline>
</glyph>
<glyph name="evowelsigndeva" format="1">
  <advance width="0"/>
  <unicode hex="0947"/>
  <outline>
    <contour>
      <point x="-432" y="1244" type="line"/>
      <point x="-859" y="1673" type="line"/>
      <point x="-684" y="1764" type="line"/>
      <point x="-202" y="1244" type="line"/>
    </contour>
    <contour>
      <point x="49" y="8" type="move" name="x14"/>
    </contour>
    <contour>
      <point x="-424" y="1282" type="move" name="_mark0"/>
    </contour>
  </outline>
</glyph>
<glyph name="udattadeva" format="1">
  <advance width="43"/>
  <unicode hex="0951"/>
  <outline>
    <contour>
      <point x="-161" y="1785" type="line"/>
      <point x="-161" y="1425" type="line"/>
      <point x="-385" y="1425" type="line"/>
      <point x="-385" y="1785" type="line"/>
    </contour>
    <contour>
      <point x="22" y="-13" type="move" name="x4"/>
    </contour>
    <contour>
      <point x="-381" y="1261" type="move" name="_mark0"/>
    </contour>
  </outline>
</glyph>
<glyph name="anudattadeva" format="1">
  <advance width="43"/>
  <unicode hex="0952"/>
  <outline>
    <contour>
      <point x="-897" y="-318" type="line"/>
      <point x="-897" y="-181" type="line"/>
      <point x="-148" y="-181" type="line"/>
      <point x="-148" y="-318" type="line"/>
    </contour>
  </outline>
</glyph>
<glyph name="qadeva" format="1">
  <advance width="1624"/>
  <unicode hex="0958"/>
  <outline>
    <contour>
      <point x="0" y="0" type="line"/>
      <point x="1624" y="0" type="line"/>
      <point x="1624" y="20" type="line"/>
      <point x="0" y="20" type="line"/>
    </contour>
  </outline>
</glyph>
<glyph name="dddhadeva" format="1">
  <advance width="1145"/>
  <unicode hex="095C"/>
  <outline>
    <component base="nuktadeva" xOffset="1329" yOffset="73"/>
    <component base="ddadeva"/>
    <contour>
      <point x="1009" y="1274" type="move" name="mark0"/>
    </contour>
  </outline>
</glyph>
<glyph name="fadeva" format="1">
  <advance width="1714"/>
  <unicode hex="095E"/>
  <outline>
    <contour>
      <point x="0" y="0" type="line"/>
      <point x="1714" y="0" type="line"/>
      <point x="1714" y="20" type="line"/>
      <point x="0" y="20" type="line"/>
    </contour>
  </outline>
</glyph>
<glyph name="fourdeva" format="1">
  <advance width="1229"/>
  <unicode hex="096A"/>
  <outline>
    <contour>
      <point x="0" y="0" type="line"/>
      <point x="1229" y="0" type="line"/>
      <point x="1229" y="20" type="line"/>
      <point x="0" y="20" type="line"/>
    </contour>
  </outline>
</glyph>
<glyph name="sevendeva" format="1">
  <advance width="1229"/>
  <unicode hex="096D"/>
  <outline>
    <contour>
      <point x="656" y="876" type="curve"/>
      <point x="669" y="711"/>
      <point x="650" y="222"/>
      <point x="883" y="222" type="curve"/>
      <point x="835" y="283"/>
      <point x="775" y="451"/>
      <point x="775" y="663" type="curve" smooth="yes"/>
      <point x="775" y="818"/>
      <point x="788" y="1040"/>
      <point x="753" y="1040" type="curve" smooth="yes"/>
      <point x="814" y="1040"/>
      <point x="893" y="901"/>
      <point x="893" y="717" type="curve" smooth="yes"/>
      <point x="893" y="497"/>
      <point x="892" y="382"/>
      <point x="835" y="378" type="curve" smooth="yes"/>
      <point x="655" y="378"/>
      <point x="477" y="508"/>
      <point x="477" y="851" type="curve"/>
      <point x="388" y="860"/>
      <point x="421" y="932"/>
      <point x="421" y="1035" type="curve"/>
      <point x="423" y="775"/>
      <point x="603" y="724"/>
      <point x="750" y="724" type="curve" smooth="yes"/>
      <point x="950" y="724"/>
      <point x="1050" y="610"/>
      <point x="1050" y="567" type="curve" smooth="yes"/>
      <point x="1050" y="496"/>
      <point x="978" y="414"/>
      <point x="801" y="414" type="curve" smooth="yes"/>
      <point x="502" y="414"/>
      <point x="456" y="794"/>
      <point x="436" y="975" type="curve" smooth="yes"/>
      <point x="436" y="938"/>
      <point x="532" y="913"/>
    </contour>
  </outline>
</glyph>
<glyph name="eightdeva" format="1">
  <advance width="1229"/>
  <unicode hex="096E"/>
  <outline>
    <contour>
      <point x="795" y="1296" type="line"/>
      <point x="963" y="1170" type="line"/>
      <point x="560" y="657" type="line"/>
      <point x="486" y="562"/>
      <point x="419" y="471"/>
      <point x="419" y="365" type="curve" smooth="yes"/>
      <point x="419" y="239"/>
      <point x="511" y="183"/>
      <point x="638" y="183" type="curve" smooth="yes"/>
      <point x="766" y="183"/>
      <point x="901" y="234"/>
      <point x="1054" y="344" type="curve"/>
      <point x="1161" y="170" type="line"/>
      <point x="1010" y="64"/>
      <point x="847" y="0"/>
      <point x="669" y="0" type="curve" smooth="yes"/>
      <point x="429" y="0"/>
      <point x="219" y="161"/>
      <point x="219" y="398" type="curve" smooth="yes"/>
      <point x="219" y="553"/>
      <point x="303" y="674"/>
      <point x="403" y="800" type="curve" smooth="yes"/>
    </contour>
  </outline>
</glyph>
<glyph name="ddabardeva" format="1">
  <advance width="1431"/>
  <unicode hex="097E"/>
  <outline>
    <contour>
      <point x="0" y="0" type="line"/>
      <point x="1431" y="0" type="line"/>
      <point x="1431" y="20" type="line"/>
      <point x="0" y="20" type="line"/>
    </contour>
  </outline>
</glyph>
<glyph name="endash.deva" format="1">
  <advance width="922"/>
  <unicode hex="2013"/>
  <outline>
    <contour>
      <point x="74" y="409" type="line"/>
      <point x="74" y="580" type="line"/>
      <point x="848" y="580" type="line"/>
      <point x="848" y="409" type="line"/>
    </contour>
  </outline>
</glyph>
<glyph name="emdash.deva" format="1">
  <advance width="1843"/>
  <unicode hex="2014"/>
  <outline>
    <contour>
      <point x="74" y="409" type="line"/>
      <point x="74" y="580" type="line"/>
      <point x="1769" y="580" type="line"/>
      <point x="1769" y="409" type="line"/>
    </contour>
  </outline>
</glyph>
<glyph name="uni25CC" format="1">
  <advance width="1122"/>
  <unicode hex="25CC"/>
  <outline>
    <contour>
      <point x="628" y="1003" type="curve" smooth="yes"/>
      <point x="628" y="974"/>
      <point x="608" y="957"/>
      <point x="566" y="957" type="curve" smooth="yes"/>
      <point x="524" y="957"/>
      <point x="505" y="975"/>
      <point x="505" y="1003" type="curve" smooth="yes"/>
      <point x="505" y="1031"/>
      <point x="523" y="1048"/>
      <point x="566" y="1048" type="curve" smooth="yes"/>
      <point x="608" y="1048"/>
      <point x="628" y="1031"/>
    </contour>
    <contour>
      <point x="349" y="899" type="curve" smooth="yes"/>
      <point x="349" y="871"/>
      <point x="329" y="853"/>
      <point x="287" y="853" type="curve" smooth="yes"/>
      <point x="246" y="853"/>
      <point x="226" y="871"/>
      <point x="226" y="899" type="curve" smooth="yes"/>
      <point x="226" y="927"/>
      <point x="246" y="945"/>
      <point x="287" y="945" type="curve" smooth="yes"/>
      <point x="329" y="945"/>
      <point x="349" y="927"/>
    </contour>
    <contour>
      <point x="908" y="899" type="curve" smooth="yes"/>
      <point x="908" y="871"/>
      <point x="888" y="853"/>
      <point x="847" y="853" type="curve" smooth="yes"/>
      <point x="806" y="853"/>
      <point x="785" y="871"/>
      <point x="785" y="899" type="curve" smooth="yes"/>
      <point x="785" y="927"/>
      <point x="806" y="945"/>
      <point x="847" y="945" type="curve" smooth="yes"/>
      <point x="888" y="945"/>
      <point x="908" y="927"/>
    </contour>
    <contour>
      <point x="1005" y="638" type="curve" smooth="yes"/>
      <point x="1005" y="610"/>
      <point x="985" y="592"/>
      <point x="942" y="592" type="curve" smooth="yes"/>
      <point x="901" y="592"/>
      <point x="882" y="610"/>
      <point x="882" y="638" type="curve" smooth="yes"/>
      <point x="882" y="666"/>
      <point x="901" y="684"/>
      <point x="942" y="684" type="curve" smooth="yes"/>
      <point x="985" y="684"/>
      <point x="1005" y="666"/>
    </contour>
    <contour>
      <point x="251" y="638" type="curve" smooth="yes"/>
      <point x="251" y="610"/>
      <point x="230" y="592"/>
      <point x="190" y="592" type="curve" smooth="yes"/>
      <point x="149" y="592"/>
      <point x="129" y="610"/>
      <point x="129" y="638" type="curve" smooth="yes"/>
      <point x="129" y="666"/>
      <point x="149" y="684"/>
      <point x="190" y="684" type="curve" smooth="yes"/>
      <point x="230" y="684"/>
      <point x="251" y="666"/>
    </contour>
    <contour>
      <point x="349" y="377" type="curve" smooth="yes"/>
      <point x="349" y="349"/>
      <point x="329" y="331"/>
      <point x="287" y="331" type="curve" smooth="yes"/>
      <point x="246" y="331"/>
      <point x="226" y="349"/>
      <point x="226" y="377" type="curve" smooth="yes"/>
      <point x="226" y="405"/>
      <point x="246" y="423"/>
      <point x="287" y="423" type="curve" smooth="yes"/>
      <point x="329" y="423"/>
      <point x="349" y="405"/>
    </contour>
    <contour>
      <point x="908" y="377" type="curve" smooth="yes"/>
      <point x="908" y="349"/>
      <point x="888" y="331"/>
      <point x="847" y="331" type="curve" smooth="yes"/>
      <point x="806" y="331"/>
      <point x="785" y="349"/>
      <point x="785" y="377" type="curve" smooth="yes"/>
      <point x="785" y="405"/>
      <point x="806" y="423"/>
      <point x="847" y="423" type="curve" smooth="yes"/>
      <point x="888" y="423"/>
      <point x="908" y="405"/>
    </contour>
    <contour>
      <point x="628" y="273" type="curve" smooth="yes"/>
      <point x="628" y="244"/>
      <point x="608" y="227"/>
      <point x="566" y="227" type="curve" smooth="yes"/>
      <point x="524" y="227"/>
      <point x="505" y="245"/>
      <point x="505" y="273" type="curve" smooth="yes"/>
      <point x="505" y="301"/>
      <point x="524" y="319"/>
      <point x="566" y="319" type="curve" smooth="yes"/>
      <point x="608" y="319"/>
      <point x="628" y="302"/>
    </contour>
  </outline>
</glyph>
<glyph name="bhaprehalfdeva" format="1">
  <advance width="929"/>
  <outline>
    <contour>
      <point x="523" y="745" type="line"/>
      <point x="523" y="754"/>
      <point x="522" y="681"/>
      <point x="454" y="681" type="curve" smooth="yes"/>
      <point x="414" y="681"/>
      <point x="390" y="680"/>
      <point x="375" y="672" type="curve" smooth="yes"/>
      <point x="375" y="644"/>
      <point x="393" y="621"/>
      <point x="460" y="614" type="curve"/>
      <point x="439" y="629"/>
      <point x="416" y="564"/>
      <point x="401" y="586" type="curve"/>
      <point x="272" y="586"/>
      <point x="184" y="647"/>
      <point x="184" y="754" type="curve" smooth="yes"/>
      <point x="174" y="830"/>
      <point x="205" y="905"/>
      <point x="313" y="926" type="curve" smooth="yes"/>
      <point x="444" y="972"/>
      <point x="603" y="882"/>
      <point x="631" y="767" type="curve" smooth="yes"/>
      <point x="631" y="783" type="line"/>
      <point x="631" y="819"/>
      <point x="615" y="877"/>
      <point x="604" y="912" type="curve"/>
      <point x="812" y="912" type="line"/>
      <point x="794" y="963"/>
      <point x="756" y="866"/>
      <point x="701" y="866" type="curve"/>
      <point x="655" y="866"/>
      <point x="399" y="843"/>
      <point x="399" y="792" type="curve"/>
      <point x="399" y="727"/>
      <point x="491" y="730"/>
      <point x="544" y="724" type="curve"/>
      <point x="539" y="612" type="line"/>
      <point x="459" y="581"/>
      <point x="366" y="591"/>
      <point x="325" y="684" type="curve" smooth="yes"/>
      <point x="242" y="763"/>
      <point x="205" y="903"/>
      <point x="279" y="970" type="curve" smooth="yes"/>
      <point x="488" y="1012"/>
      <point x="471" y="797"/>
      <point x="502" y="657" type="curve" smooth="yes"/>
      <point x="782" y="657" type="line"/>
      <point x="765" y="593" type="line"/>
    </contour>
    <contour>
      <point x="1043" y="1128" type="line"/>
      <point x="850" y="1178" type="line"/>
      <point x="872" y="1283" type="line"/>
      <point x="1064" y="1232" type="line"/>
    </contour>
  </outline>
</glyph>
<glyph name="bharadeva" format="1">
  <advance width="1471"/>
  <outline>
    <contour>
      <point x="0" y="0" type="line"/>
      <point x="1471" y="0" type="line"/>
      <point x="1471" y="20" type="line"/>
      <point x="0" y="20" type="line"/>
    </contour>
  </outline>
</glyph>
<glyph name="caradeva" format="1">
  <advance width="1358"/>
  <outline>
    <contour>
      <point x="0" y="0" type="line"/>
      <point x="1358" y="0" type="line"/>
      <point x="1358" y="20" type="line"/>
      <point x="0" y="20" type="line"/>
    </contour>
  </outline>
</glyph>
<glyph name="caraprehalfdeva" format="1">
  <advance width="931"/>
  <outline>
    <contour>
      <point x="0" y="0" type="line"/>
      <point x="931" y="0" type="line"/>
      <point x="931" y="20" type="line"/>
      <point x="0" y="20" type="line"/>
    </contour>
  </outline>
</glyph>
<glyph name="chanuktadeva" format="1">
  <advance width="1473"/>
  <outline>
    <component base="chadeva"/>
    <component base="nuktadeva" xOffset="1368"/>
    <contour>
      <point x="1021" y="1274" type="move" name="mark0"/>
    </contour>
  </outline>
</glyph>
<glyph name="daghadeva" format="1">
  <advance width="1644"/>
  <outline>
    <contour>
      <point x="0" y="0" type="line"/>
      <point x="1644" y="0" type="line"/>
      <point x="1644" y="20" type="line"/>
      <point x="0" y="20" type="line"/>
    </contour>
  </outline>
</glyph>
<glyph name="danuktadeva" format="1">
  <advance width="1078"/>
  <outline>
    <component base="dadeva"/>
    <component base="nuktadeva" xOffset="1062" yOffset="147"/>
    <contour>
      <point x="891" y="0" type="move" name="mark0"/>
    </contour>
  </outline>
</glyph>
<glyph name="dayaprehalfdeva" format="1">
  <advance width="1132"/>
  <outline>
    <contour>
      <point x="0" y="0" type="line"/>
      <point x="1132" y="0" type="line"/>
      <point x="1132" y="20" type="line"/>
      <point x="0" y="20" type="line"/>
    </contour>
  </outline>
</glyph>
<glyph name="ddaddadeva" format="1">
  <advance width="1239"/>
  <outline>
    <contour>
      <point x="0" y="0" type="line"/>
      <point x="1239" y="0" type="line"/>
      <point x="1239" y="20" type="line"/>
      <point x="0" y="20" type="line"/>
    </contour>
  </outline>
</glyph>
<glyph name="ddaddauudeva" format="1">
  <advance width="1354"/>
  <outline>
    <contour>
      <point x="0" y="0" type="line"/>
      <point x="1354" y="0" type="line"/>
      <point x="1354" y="20" type="line"/>
      <point x="0" y="20" type="line"/>
    </contour>
  </outline>
</glyph>
<glyph name="ddanuktaraprehalfdeva" format="1">
  <advance width="1207"/>
  <outline>
    <contour>
      <point x="0" y="0" type="line"/>
      <point x="1207" y="0" type="line"/>
      <point x="1207" y="20" type="line"/>
      <point x="0" y="20" type="line"/>
    </contour>
  </outline>
</glyph>
<glyph name="dhaprehalfdeva" format="1">
  <advance width="782"/>
  <outline>
    <contour>
      <point x="0" y="0" type="line"/>
      <point x="782" y="0" type="line"/>
      <point x="782" y="20" type="line"/>
      <point x="0" y="20" type="line"/>
    </contour>
  </outline>
</glyph>
<glyph name="ecandravowelsignrephdeva" format="1">
  <advance width="43"/>
  <outline>
    <contour>
      <point x="-372" y="1287" type="line"/>
      <point x="-409" y="1349"/>
      <point x="-434" y="1421"/>
      <point x="-452" y="1493" type="curve"/>
      <point x="-511" y="1445"/>
      <point x="-585" y="1402"/>
      <point x="-673" y="1402" type="curve" smooth="yes"/>
      <point x="-898" y="1402"/>
      <point x="-1039" y="1559"/>
      <point x="-1119" y="1777" type="curve"/>
      <point x="-1075" y="1792"/>
      <point x="-984" y="1824"/>
      <point x="-940" y="1839" type="curve"/>
      <point x="-886" y="1669"/>
      <point x="-817" y="1547"/>
      <point x="-682" y="1547" type="curve" smooth="yes"/>
      <point x="-543" y="1547"/>
      <point x="-490" y="1669"/>
      <point x="-455" y="1840" type="curve"/>
      <point x="-332" y="1797" type="line"/>
      <point x="-270" y="1832"/>
      <point x="-195" y="1849"/>
      <point x="-114" y="1849" type="curve" smooth="yes"/>
      <point x="-35" y="1849"/>
      <point x="43" y="1836"/>
      <point x="122" y="1810" type="curve"/>
      <point x="81" y="1670" type="line"/>
      <point x="23" y="1692"/>
      <point x="-31" y="1704"/>
      <point x="-78" y="1704" type="curve" smooth="yes"/>
      <point x="-186" y="1704"/>
      <point x="-249" y="1643"/>
      <point x="-249" y="1526" type="curve" smooth="yes"/>
      <point x="-249" y="1448"/>
      <point x="-211" y="1360"/>
      <point x="-161" y="1287" type="curve"/>
    </contour>
    <contour>
      <point x="-381" y="1261" type="move" name="_mark0"/>
    </contour>
  </outline>
</glyph>
<glyph name="garaprehalfdeva" format="1">
  <advance width="806"/>
  <outline>
    <contour>
      <point x="513" y="1119" type="line"/>
      <point x="513" y="481" type="line"/>
      <point x="513" y="409"/>
      <point x="477" y="361"/>
      <point x="392" y="361" type="curve" smooth="yes"/>
      <point x="327" y="361"/>
      <point x="257" y="417"/>
      <point x="215" y="462" type="curve"/>
      <point x="189" y="480"/>
      <point x="166" y="498"/>
      <point x="153" y="515" type="curve"/>
      <point x="127" y="555"/>
      <point x="108" y="597"/>
      <point x="108" y="633" type="curve" smooth="yes"/>
      <point x="108" y="729"/>
      <point x="202" y="735"/>
      <point x="291" y="738" type="curve"/>
      <point x="291" y="1119" type="line"/>
      <point x="28" y="1119" type="line"/>
      <point x="28" y="1274" type="line"/>
      <point x="824" y="1274" type="line"/>
      <point x="824" y="1119" type="line"/>
    </contour>
    <contour>
      <point x="973" y="282" type="line"/>
      <point x="884" y="231"/>
      <point x="513" y="-4"/>
      <point x="424" y="-54" type="curve"/>
      <point x="413" y="-37"/>
      <point x="326" y="74"/>
      <point x="314" y="91" type="curve"/>
      <point x="411" y="150"/>
      <point x="788" y="348"/>
      <point x="886" y="406" type="curve"/>
    </contour>
  </outline>
</glyph>
<glyph name="hanuktaudeva" format="1">
  <advance width="1228"/>
  <outline>
    <contour>
      <point x="0" y="0" type="line"/>
      <point x="1228" y="0" type="line"/>
      <point x="1228" y="20" type="line"/>
      <point x="0" y="20" type="line"/>
    </contour>
  </outline>
</glyph>
<glyph name="harrvocalicdeva" format="1">
  <advance width="1269"/>
  <outline>
    <contour>
      <point x="0" y="0" type="line"/>
      <point x="1269" y="0" type="line"/>
      <point x="1269" y="20" type="line"/>
      <point x="0" y="20" type="line"/>
    </contour>
  </outline>
</glyph>
<glyph name="iivowelsignrephanusvaradeva" format="1">
  <advance width="696"/>
  <outline>
    <contour>
      <point x="658" y="1561" type="curve" smooth="yes"/>
      <point x="754" y="1561"/>
      <point x="795" y="1501"/>
      <point x="795" y="1449" type="curve" smooth="yes"/>
      <point x="795" y="1400"/>
      <point x="754" y="1338"/>
      <point x="658" y="1338" type="curve" smooth="yes"/>
      <point x="568" y="1338"/>
      <point x="521" y="1397"/>
      <point x="521" y="1449" type="curve" smooth="yes"/>
      <point x="521" y="1502"/>
      <point x="567" y="1561"/>
    </contour>
    <contour>
      <point x="252" y="1244" type="line"/>
      <point x="189" y="1350"/>
      <point x="150" y="1426"/>
      <point x="150" y="1539" type="curve" smooth="yes"/>
      <point x="150" y="1675"/>
      <point x="293" y="1833"/>
      <point x="533" y="1833" type="curve" smooth="yes"/>
      <point x="638" y="1833"/>
      <point x="690" y="1825"/>
      <point x="759" y="1812" type="curve"/>
      <point x="747" y="1630" type="line"/>
      <point x="708" y="1636"/>
      <point x="680" y="1640"/>
      <point x="637" y="1640" type="curve" smooth="yes"/>
      <point x="521" y="1640"/>
      <point x="452" y="1552"/>
      <point x="452" y="1457" type="curve" smooth="yes"/>
      <point x="452" y="1381"/>
      <point x="479" y="1319"/>
      <point x="520" y="1244" type="curve"/>
    </contour>
    <component base="iivowelsigndeva"/>
  </outline>
</glyph>
<glyph name="iivowelsignrephdeva" format="1">
  <advance width="569"/>
  <outline>
    <contour>
      <point x="0" y="0" type="line"/>
      <point x="569" y="0" type="line"/>
      <point x="569" y="20" type="line"/>
      <point x="0" y="20" type="line"/>
    </contour>
  </outline>
</glyph>
<glyph name="ivowelsign03deva" format="1">
  <advance width="603"/>
  <outline>
    <contour>
      <point x="182" y="1254" type="line"/>
      <point x="182" y="1355" type="line"/>
      <point x="182" y="1591"/>
      <point x="339" y="1769"/>
      <point x="643" y="1769" type="curve" smooth="yes"/>
      <point x="986" y="1769"/>
      <point x="1318" y="1579"/>
      <point x="1586" y="1257" type="curve"/>
      <point x="1367" y="1257" type="line"/>
      <point x="1133" y="1485"/>
      <point x="916" y="1589"/>
      <point x="685" y="1589" type="curve" smooth="yes"/>
      <point x="493" y="1589"/>
      <point x="393" y="1480"/>
      <point x="393" y="1337" type="curve" smooth="yes"/>
      <point x="393" y="1254" type="line"/>
    </contour>
    <component base="aavowelsigndeva"/>
  </outline>
</glyph>
<glyph name="janyadeva" format="1">
  <advance width="1492"/>
  <outline>
    <contour>
      <point x="0" y="0" type="line"/>
      <point x="1492" y="0" type="line"/>
      <point x="1492" y="20" type="line"/>
      <point x="0" y="20" type="line"/>
    </contour>
  </outline>
</glyph>
<glyph name="janyaprehalfdeva" format="1">
  <advance width="1002"/>
  <outline>
    <contour>
      <point x="0" y="0" type="line"/>
      <point x="1002" y="0" type="line"/>
      <point x="1002" y="20" type="line"/>
      <point x="0" y="20" type="line"/>
    </contour>
  </outline>
</glyph>
<glyph name="jhaprehalfdeva" format="1">
  <advance width="1067"/>
  <outline>
    <contour>
      <point x="0" y="0" type="line"/>
      <point x="1067" y="0" type="line"/>
      <point x="1067" y="20" type="line"/>
      <point x="0" y="20" type="line"/>
    </contour>
  </outline>
</glyph>
<glyph name="kassadeva" format="1">
  <advance width="1651"/>
  <outline>
    <contour>
      <point x="0" y="0" type="line"/>
      <point x="1651" y="0" type="line"/>
      <point x="1651" y="20" type="line"/>
      <point x="0" y="20" type="line"/>
    </contour>
  </outline>
</glyph>
<glyph name="kassaraprehalfdeva" format="1">
  <advance width="1355"/>
  <outline>
    <contour>
      <point x="0" y="0" type="line"/>
      <point x="1355" y="0" type="line"/>
      <point x="1355" y="20" type="line"/>
      <point x="0" y="20" type="line"/>
    </contour>
  </outline>
</glyph>
<glyph name="katadeva" format="1">
  <advance width="1999"/>
  <outline>
    <contour>
      <point x="0" y="0" type="line"/>
      <point x="1999" y="0" type="line"/>
      <point x="1999" y="20" type="line"/>
      <point x="0" y="20" type="line"/>
    </contour>
  </outline>
</glyph>
<glyph name="kharadeva" format="1">
  <advance width="1748"/>
  <outline>
    <contour>
      <point x="0" y="0" type="line"/>
      <point x="1748" y="0" type="line"/>
      <point x="1748" y="20" type="line"/>
      <point x="0" y="20" type="line"/>
    </contour>
  </outline>
</glyph>
<glyph name="lanuktadevaMAR" format="1">
  <advance width="1603"/>
  <outline>
    <component base="ladevaMAR"/>
    <component base="nuktadeva" xOffset="1441"/>
    <contour>
      <point x="1034" y="1274" type="move" name="mark0"/>
    </contour>
  </outline>
</glyph>
<glyph name="llaradeva" format="1">
  <advance width="1603"/>
  <outline>
    <component base="vattudeva" xOffset="1581"/>
    <component base="lladeva"/>
    <contour>
      <point x="1112" y="1274" type="move" name="mark0"/>
    </contour>
  </outline>
</glyph>
<glyph name="naraprehalfdeva" format="1">
  <advance width="888"/>
  <outline>
    <contour>
      <point x="0" y="0" type="line"/>
      <point x="888" y="0" type="line"/>
      <point x="888" y="20" type="line"/>
      <point x="0" y="20" type="line"/>
    </contour>
  </outline>
</glyph>
<glyph name="ngaradeva" format="1">
  <advance width="1490"/>
  <outline>
    <component base="vattudeva" xOffset="1306"/>
    <component base="ngadeva"/>
    <contour>
      <point x="990" y="1274" type="move" name="mark0"/>
    </contour>
  </outline>
</glyph>
<glyph name="nnaraprehalfdeva" format="1">
  <advance width="1170"/>
  <outline>
    <contour>
      <point x="0" y="0" type="line"/>
      <point x="1170" y="0" type="line"/>
      <point x="1170" y="20" type="line"/>
      <point x="0" y="20" type="line"/>
    </contour>
  </outline>
</glyph>
<glyph name="nyaradeva" format="1">
  <advance width="1614"/>
  <outline>
    <contour>
      <point x="0" y="0" type="line"/>
      <point x="1614" y="0" type="line"/>
      <point x="1614" y="20" type="line"/>
      <point x="0" y="20" type="line"/>
    </contour>
  </outline>
</glyph>
<glyph name="ovowelsignrephdeva" format="1">
  <advance width="561"/>
  <outline>
    <contour>
      <point x="0" y="0" type="line"/>
      <point x="561" y="0" type="line"/>
      <point x="561" y="20" type="line"/>
      <point x="0" y="20" type="line"/>
    </contour>
  </outline>
</glyph>
<glyph name="ranuktauudeva" format="1">
  <advance width="1802"/>
  <outline>
    <contour>
      <point x="0" y="0" type="line"/>
      <point x="1802" y="0" type="line"/>
      <point x="1802" y="20" type="line"/>
      <point x="0" y="20" type="line"/>
    </contour>
  </outline>
</glyph>
<glyph name="raprehalfdeva" format="1">
  <advance width="714"/>
  <outline>
    <contour>
      <point x="444" y="1128" type="line"/>
      <point x="-13" y="1232" type="line"/>
      <point x="368" y="1283" type="line"/>
      <point x="826" y="1178" type="line"/>
    </contour>
    <contour>
      <point x="858" y="525" type="line"/>
      <point x="756" y="477"/>
      <point x="671" y="461"/>
      <point x="553" y="461" type="curve" smooth="yes"/>
      <point x="385" y="461"/>
      <point x="195" y="529"/>
      <point x="56" y="619" type="curve"/>
      <point x="112" y="763" type="line"/>
      <point x="237" y="697"/>
      <point x="374" y="655"/>
      <point x="504" y="655" type="curve" smooth="yes"/>
      <point x="615" y="655"/>
      <point x="700" y="674"/>
      <point x="812" y="724" type="curve"/>
    </contour>
  </outline>
</glyph>
<glyph name="sanuktaprehalfdeva" format="1">
  <advance width="984"/>
  <outline>
    <contour>
      <point x="0" y="0" type="line"/>
      <point x="984" y="0" type="line"/>
      <point x="984" y="20" type="line"/>
      <point x="0" y="20" type="line"/>
    </contour>
  </outline>
</glyph>
<glyph name="saradeva" format="1">
  <advance width="1520"/>
  <outline>
    <contour>
      <point x="0" y="0" type="line"/>
      <point x="1520" y="0" type="line"/>
      <point x="1520" y="20" type="line"/>
      <point x="0" y="20" type="line"/>
    </contour>
  </outline>
</glyph>
<glyph name="shacadeva" format="1">
  <advance width="1610"/>
  <outline>
    <contour>
      <point x="0" y="0" type="line"/>
      <point x="1610" y="0" type="line"/>
      <point x="1610" y="20" type="line"/>
      <point x="0" y="20" type="line"/>
    </contour>
  </outline>
</glyph>
<glyph name="shadevaMAR" format="1">
  <advance width="1554"/>
  <outline>
    <contour>
      <point x="0" y="0" type="line"/>
      <point x="1554" y="0" type="line"/>
      <point x="1554" y="20" type="line"/>
      <point x="0" y="20" type="line"/>
    </contour>
  </outline>
</glyph>
<glyph name="shaladeva" format="1">
  <advance width="2399"/>
  <outline>
    <contour>
      <point x="0" y="0" type="line"/>
      <point x="2399" y="0" type="line"/>
      <point x="2399" y="20" type="line"/>
      <point x="0" y="20" type="line"/>
    </contour>
  </outline>
</glyph>
<glyph name="shanadeva" format="1">
  <advance width="1621"/>
  <outline>
    <contour>
      <point x="0" y="0" type="line"/>
      <point x="1621" y="0" type="line"/>
      <point x="1621" y="20" type="line"/>
      <point x="0" y="20" type="line"/>
    </contour>
  </outline>
</glyph>
<glyph name="sharaprehalfdeva" format="1">
  <advance width="1199"/>
  <outline>
    <contour>
      <point x="0" y="0" type="line"/>
      <point x="1199" y="0" type="line"/>
      <point x="1199" y="20" type="line"/>
      <point x="0" y="20" type="line"/>
    </contour>
  </outline>
</glyph>
<glyph name="tatadeva" format="1">
  <advance width="1558"/>
  <outline>
    <contour>
      <point x="1319" y="980" type="line"/>
      <point x="1253" y="929" type="line"/>
      <point x="1224" y="929"/>
      <point x="1073" y="928"/>
      <point x="1056" y="925" type="curve"/>
      <point x="1033" y="919"/>
      <point x="1014" y="237"/>
      <point x="1014" y="202" type="curve" smooth="yes"/>
      <point x="1014" y="163"/>
      <point x="994" y="121"/>
      <point x="1071" y="68" type="curve"/>
      <point x="974" y="370" type="line"/>
      <point x="845" y="468"/>
      <point x="629" y="545"/>
      <point x="629" y="617" type="curve" smooth="yes"/>
      <point x="581" y="630"/>
      <point x="525" y="642"/>
      <point x="491" y="627" type="curve"/>
      <point x="491" y="632" type="line"/>
      <point x="458" y="609"/>
      <point x="427" y="576"/>
      <point x="427" y="535" type="curve"/>
      <point x="412" y="435"/>
      <point x="489" y="355"/>
      <point x="543" y="296" type="curve"/>
      <point x="450" y="258" type="line"/>
      <point x="412" y="291"/>
      <point x="376" y="431"/>
      <point x="343" y="469" type="curve"/>
      <point x="804" y="468" type="line"/>
      <point x="762" y="518"/>
      <point x="727" y="662"/>
      <point x="727" y="730" type="curve"/>
      <point x="727" y="775"/>
      <point x="275" y="824"/>
      <point x="306" y="852" type="curve"/>
      <point x="71" y="954" type="line"/>
      <point x="826" y="1006" type="line"/>
      <point x="1397" y="901" type="line"/>
      <point x="1306" y="1119" type="line"/>
      <point x="691" y="663" type="line"/>
      <point x="522" y="714" type="line"/>
    </contour>
  </outline>
</glyph>
<glyph name="ttanuktaraprehalfdeva" format="1">
  <advance width="1039"/>
  <outline>
    <contour>
      <point x="0" y="0" type="line"/>
      <point x="1039" y="0" type="line"/>
      <point x="1039" y="20" type="line"/>
      <point x="0" y="20" type="line"/>
    </contour>
  </outline>
</glyph>
<glyph name="ttatthauudeva" format="1">
  <advance width="1247"/>
  <outline>
    <contour>
      <point x="0" y="0" type="line"/>
      <point x="1247" y="0" type="line"/>
      <point x="1247" y="20" type="line"/>
      <point x="0" y="20" type="line"/>
    </contour>
  </outline>
</glyph>
<glyph name="ttharadeva" format="1">
  <advance width="1227"/>
  <outline>
    <component base="vattudeva" xOffset="1180"/>
    <component base="tthadeva"/>
    <contour>
      <point x="649" y="1274" type="move" name="mark0"/>
    </contour>
  </outline>
</glyph>
